<svg xmlns="http://www.w3.org/2000/svg" viewBox="0 0 60 60">
  <defs>
    <style>
      .cls-1 {
        fill: none;
        stroke-linecap: round;
        stroke-linejoin: round;
        stroke-width: 2px;
      }

      .cls-1, .cls-2 {
        stroke: #f57365;
      }

      .cls-2 {
        fill: #f57365;
        stroke-miterlimit: 10;
      }
    </style>
  </defs>
  <title>burger</title>
  <g id="Слой_2" data-name="Слой 2">
    <g id="icons">
      <g>
        <polyline class="cls-1" points="30 41 45 49 53 41"/>
        <path class="cls-1" d="M59,46a5,5,0,0,1-5,5H6A5,5,0,0,1,6,41H54A5,5,0,0,1,59,46Z"/>
        <path class="cls-1" d="M6,51v3a5,5,0,0,0,5,5H49a5,5,0,0,0,5-5V51Z"/>
        <path class="cls-1" d="M54,23C54,9.77,43.23,1,30,1S6,9.77,6,23Z"/>
        <path class="cls-1" d="M6,23s-5,3-5,5c0,2.79,2.22,3,5,3,1.34,0,3.1-.14,4-1,1.29,2.33,3.15,4,6,4,3.1,0,5.83-2.33,7-5,1.16,2.67,3.89,4,7,4s5.83-1.33,7-4c1.16,2.67,3.89,5,7,5a8.27,8.27,0,0,0,7-4c.9.86,2.66,1,4,1,2.79,0,4-.21,4-3,0-2-5-5-5-5"/>
        <path class="cls-1" d="M6,31A5,5,0,0,0,6,41H54a5,5,0,0,0,0-10"/>
        <path class="cls-2" d="M17,10a1,1,0,1,0,1,1,1,1,0,0,0-1-1Z"/>
        <path class="cls-2" d="M31,10a1,1,0,1,0,1,1,1,1,0,0,0-1-1Z"/>
        <path class="cls-2" d="M43,10a1,1,0,1,0,1,1,1,1,0,0,0-1-1Z"/>
        <path class="cls-2" d="M23,6a1,1,0,1,0,1,1,1,1,0,0,0-1-1Z"/>
        <path class="cls-2" d="M37,6a1,1,0,1,0,1,1,1,1,0,0,0-1-1Z"/>
      </g>
    </g>
  </g>
</svg>
