<svg xmlns="http://www.w3.org/2000/svg" viewBox="0 0 60 60">
  <defs>
    <style>
      .cls-1, .cls-2 {
        fill: none;
        stroke-linecap: round;
        stroke-width: 2px;
      }

      .cls-1, .cls-2, .cls-3 {
        stroke: #f57365;
      }

      .cls-1, .cls-3 {
        stroke-miterlimit: 10;
      }

      .cls-2 {
        stroke-linejoin: round;
      }

      .cls-3 {
        fill: #f57365;
      }
    </style>
  </defs>
  <title>cook</title>
  <g id="Слой_2" data-name="Слой 2">
    <g id="icons">
      <g>
        <path class="cls-1" d="M22.52,43.87l-15,3.78C3.61,49.13,1,54.8,1,59H59c0-4.2-2.61-9.87-6.55-11.35l-15-3.78"/>
        <line class="cls-2" x1="31" y1="59" x2="31" y2="47.53"/>
        <path class="cls-1" d="M16,26c-2.52,0-1.13,9,2.36,9,0,7.57,8.15,12.61,11.64,12.61"/>
        <path class="cls-1" d="M44,26c1.26,0,1.13,9-2.36,9,0,7.57-8.15,12.61-11.64,12.61"/>
        <g>
          <path class="cls-1" d="M14.87,16.43,16,26s3.91-3,14-3,14,3,14,3l1.13-9.57"/>
          <path class="cls-1" d="M21.17,9.83a9.16,9.16,0,0,1,.37-2.53,5.66,5.66,0,1,0-6.67,9.13"/>
          <path class="cls-1" d="M45.13,16.43A5.66,5.66,0,1,0,38.45,7.3a8.8,8.8,0,0,1,.38,2.53"/>
          <path class="cls-1" d="M38.45,7.3a8.82,8.82,0,0,0-16.91,0"/>
          <path class="cls-1" d="M21.54,7.3a9.16,9.16,0,0,0-.37,2.53"/>
          <path class="cls-1" d="M38.83,9.83a8.8,8.8,0,0,0-.38-2.53"/>
        </g>
        <path class="cls-1" d="M22.43,30c0-1.39,1.13-1.26,2.53-1.26s2.52-.13,2.52,1.26"/>
        <path class="cls-1" d="M32.52,30c0-1.39,1.13-1.26,2.52-1.26s2.53-.13,2.53,1.26"/>
        <path class="cls-3" d="M26.22,37a1.71,1.71,0,0,1,1.31,1.05H24.91A1.7,1.7,0,0,1,26.22,37m0-2c-2.09,0-3.79,2.26-3.79,5.05H30C30,37.3,28.31,35,26.22,35Z"/>
        <path class="cls-3" d="M33.78,37a1.7,1.7,0,0,1,1.31,1.05H32.47A1.71,1.71,0,0,1,33.78,37m0-2C31.69,35,30,37.3,30,40.09h7.57c0-2.79-1.7-5.05-3.79-5.05Z"/>
      </g>
    </g>
  </g>
</svg>
