<svg 
 xmlns="http://www.w3.org/2000/svg"
 xmlns:xlink="http://www.w3.org/1999/xlink"
 width="24px" height="24px">
<path fill-rule="evenodd"  fill="rgb(250, 250, 250)"
 d="M22.680,22.680 C21.800,23.560 20.740,24.000 19.500,24.000 L4.500,24.000 C3.260,24.000 2.201,23.560 1.320,22.680 C0.440,21.800 -0.000,20.740 -0.000,19.500 L-0.000,4.500 C-0.000,3.260 0.440,2.200 1.320,1.320 C2.201,0.440 3.260,-0.000 4.500,-0.000 L19.500,-0.000 C20.740,-0.000 21.800,0.440 22.680,1.320 C23.560,2.200 24.000,3.260 24.000,4.500 L24.000,19.500 C24.000,20.740 23.560,21.800 22.680,22.680 ZM17.930,6.148 C18.091,5.945 18.464,5.844 19.047,5.844 L20.766,5.844 L20.766,2.422 L18.031,2.422 C16.448,2.422 15.312,2.796 14.625,3.547 C13.938,4.297 13.594,5.406 13.594,6.875 L13.594,8.922 L11.547,8.922 L11.547,12.344 L13.594,12.344 L13.594,22.266 L17.688,22.266 L17.688,12.344 L20.422,12.344 L20.781,8.922 L17.688,8.922 L17.688,7.219 C17.688,6.708 17.768,6.351 17.930,6.148 Z"/>
</svg>