<svg 
 xmlns="http://www.w3.org/2000/svg"
 xmlns:xlink="http://www.w3.org/1999/xlink"
 width="227px" height="66px">
<path fill-rule="evenodd"  fill="rgb(255, 255, 255)"
 d="M226.596,36.408 C225.785,42.437 223.379,44.728 220.436,44.728 C219.058,44.728 215.102,44.041 213.735,37.899 C212.726,33.365 212.974,25.074 213.085,22.540 C213.088,22.471 212.998,22.118 212.804,22.566 C212.279,23.782 210.822,27.107 209.949,30.788 C208.611,36.423 208.495,40.345 208.561,40.980 C208.696,42.282 207.183,42.487 206.459,42.487 C205.322,42.487 203.925,42.390 202.793,40.344 C202.397,39.628 201.881,37.368 201.495,33.543 C200.969,28.343 200.905,24.472 200.877,23.154 C200.863,22.503 200.484,22.604 200.148,23.220 C199.547,24.318 198.282,26.537 196.925,32.258 C196.116,35.667 196.200,40.253 196.063,42.983 C196.011,44.023 195.629,44.425 195.138,44.527 C194.431,44.673 192.518,45.010 190.642,44.298 C190.218,44.137 189.636,43.804 189.536,43.538 C189.372,43.105 189.268,41.728 189.202,40.044 C187.623,43.868 185.678,44.728 183.627,44.728 C181.659,44.728 178.223,43.331 177.515,38.808 C177.515,38.808 177.093,39.709 176.348,40.752 C173.051,45.374 166.554,46.554 163.193,41.103 C163.029,40.838 162.880,40.550 162.736,40.253 C161.546,42.918 159.325,44.713 157.003,44.713 C155.019,44.713 151.674,43.337 150.190,39.059 C148.022,32.811 150.397,23.431 150.539,22.853 C150.657,22.375 150.474,22.242 149.837,22.284 C147.844,22.418 145.976,22.401 145.976,22.401 C144.876,25.955 142.726,30.521 140.720,33.921 C138.880,37.040 136.881,39.706 135.107,41.815 C135.146,44.562 135.196,47.125 135.226,49.140 C135.301,54.173 134.271,59.269 132.698,61.637 C130.910,64.327 127.996,66.250 124.600,65.973 C121.396,65.713 117.167,63.729 117.527,58.388 C117.809,54.200 121.648,50.604 126.702,45.862 C127.849,44.786 129.717,43.032 129.717,43.032 L129.621,40.161 C129.504,40.338 129.370,40.535 129.216,40.752 C125.941,45.381 119.421,46.554 116.060,41.103 C115.837,40.742 115.633,40.361 115.446,39.962 C113.851,43.638 111.574,44.705 109.370,44.705 C107.401,44.705 103.963,43.178 103.485,38.808 C103.485,38.808 103.331,39.322 102.319,40.752 C99.044,45.381 92.524,46.554 89.163,41.103 C88.462,39.965 87.918,38.620 87.551,37.072 C86.273,40.868 83.349,44.726 80.434,44.726 C76.072,44.726 73.562,40.790 72.972,33.833 C69.677,41.888 64.943,45.011 59.034,44.809 C57.518,44.757 55.140,44.300 54.034,43.795 C52.749,43.210 51.509,42.540 51.849,41.273 C52.199,39.971 52.812,38.919 53.883,38.093 C54.296,37.774 54.984,37.865 55.434,38.169 C56.273,38.734 56.629,39.121 57.463,39.623 C60.324,41.341 61.932,39.573 62.359,37.857 C62.917,35.613 62.075,33.248 59.513,30.759 C58.411,29.687 57.307,28.685 56.324,27.753 C54.913,30.187 52.950,33.565 50.927,37.009 C47.683,42.536 44.657,44.720 42.510,44.720 C39.704,44.720 37.741,42.672 38.150,31.623 C38.302,27.495 38.529,22.634 38.593,20.690 C38.608,20.250 38.307,20.266 38.042,20.535 C36.532,22.072 33.322,26.400 30.859,35.271 C29.276,40.969 29.269,42.497 29.082,43.909 C28.925,45.088 25.912,44.692 25.362,44.576 C24.771,44.451 24.412,44.148 24.102,43.751 C23.792,43.354 23.541,42.686 23.386,41.864 C23.231,41.044 23.190,39.169 23.190,37.561 L23.323,16.401 C23.323,15.713 23.684,15.369 24.408,15.369 C25.928,15.369 27.638,16.096 28.278,16.452 C28.656,16.662 28.821,16.968 28.821,17.285 L28.740,30.810 C28.740,30.810 29.680,28.227 30.159,26.810 C33.957,15.563 37.977,15.369 39.371,15.369 C40.301,15.369 41.909,16.302 42.662,16.776 C43.901,17.557 44.641,18.419 44.585,19.933 C44.415,24.510 44.203,28.931 44.203,31.871 C44.203,35.282 44.188,38.925 45.356,38.925 C46.819,38.925 48.754,35.337 51.315,30.801 C52.238,29.167 53.328,27.060 54.121,25.495 C54.014,25.369 53.910,25.243 53.814,25.120 C52.503,23.436 52.146,21.815 52.815,19.630 C53.679,16.810 56.576,14.168 60.090,14.996 C62.217,15.496 62.179,17.764 61.313,19.747 C60.090,22.546 58.711,23.936 58.711,23.936 C61.092,25.740 63.220,27.385 64.297,28.254 C67.223,30.612 68.847,33.398 68.052,37.108 C68.052,37.108 71.754,34.079 72.805,28.471 C72.803,28.156 72.802,27.832 72.802,27.495 C72.802,24.325 72.887,14.061 72.887,14.061 C70.977,14.003 68.096,13.946 66.443,13.880 C65.006,13.824 66.128,9.249 67.167,9.249 C68.286,9.249 72.105,9.473 73.224,9.473 C73.224,9.473 73.329,3.621 73.532,1.623 C73.667,0.306 74.359,-0.009 75.882,0.313 C76.985,0.546 77.916,0.761 78.956,1.212 C79.384,1.396 80.129,1.700 80.080,2.290 C80.022,2.998 79.773,9.700 79.773,9.700 C79.773,9.700 82.550,9.911 83.548,9.934 C84.735,9.960 87.728,10.123 88.151,10.309 C89.085,10.721 88.213,14.047 87.308,14.094 C85.503,14.188 84.276,14.156 82.921,14.171 C82.394,14.177 79.678,14.224 79.678,14.224 C79.605,15.198 79.176,25.295 79.176,32.387 C79.176,37.711 80.375,40.209 81.633,40.209 C83.783,40.209 86.412,35.915 87.007,32.189 C86.997,30.877 87.076,29.473 87.256,27.975 C87.878,22.788 89.086,20.444 90.578,18.331 C92.867,15.089 95.862,14.299 98.749,15.176 C99.820,15.501 101.431,16.623 102.433,18.234 C102.433,18.234 102.433,17.575 102.433,17.072 C102.433,16.567 102.951,15.892 103.689,15.836 C104.248,15.793 104.975,15.867 105.819,16.066 C106.624,16.257 108.356,16.774 108.370,17.799 C108.374,18.133 108.300,19.607 108.261,21.525 C108.195,24.855 108.060,26.858 108.060,31.462 C108.060,39.356 109.145,41.082 111.053,41.082 C112.545,41.082 113.865,38.654 114.324,36.332 C113.898,34.013 113.841,31.260 114.153,28.021 C114.488,24.545 115.670,20.917 117.475,18.331 C119.747,15.077 122.759,14.299 125.646,15.176 C126.717,15.501 128.328,16.623 129.330,18.234 C129.330,18.234 129.330,17.327 129.326,17.180 C129.307,16.398 130.040,15.737 131.258,15.834 C132.223,15.910 133.153,16.130 133.940,16.447 C134.830,16.805 135.257,17.089 135.268,17.838 C135.272,18.173 135.197,19.607 135.158,21.525 C135.119,23.484 135.029,28.917 135.050,35.822 C135.052,36.307 135.055,36.794 135.058,37.282 C135.996,35.973 136.723,34.741 137.673,33.080 C139.447,29.978 141.165,25.688 141.865,22.404 C141.865,22.404 139.729,21.139 140.075,18.458 C140.294,16.769 140.869,15.829 141.713,15.033 C143.128,13.698 147.563,13.359 147.086,17.537 C146.996,18.334 146.885,18.786 146.885,18.786 C148.719,18.508 150.723,18.146 152.124,17.809 C154.092,17.337 155.461,17.721 156.103,18.472 C156.804,19.291 157.083,20.146 156.739,21.779 C155.933,25.610 155.196,28.257 155.086,32.030 C154.919,37.766 156.358,41.082 158.343,41.082 C159.710,41.082 160.959,39.863 161.631,36.886 C161.075,34.248 160.972,31.129 161.286,28.053 C161.714,23.845 162.802,20.917 164.608,18.331 C166.880,15.077 169.892,14.299 172.779,15.176 C173.850,15.501 175.461,16.623 176.462,18.234 C176.462,18.234 176.458,17.502 176.458,17.116 C176.458,16.398 177.008,15.876 177.786,15.831 C178.335,15.799 179.039,15.874 179.848,16.066 C180.654,16.257 182.386,16.774 182.400,17.799 C182.404,18.133 182.330,19.606 182.291,21.525 C182.225,24.855 182.090,26.858 182.090,31.462 C182.090,39.356 182.990,41.082 184.897,41.082 C186.803,41.082 188.555,36.951 189.095,33.908 C189.094,33.575 189.093,33.261 189.093,32.973 C189.093,26.352 189.247,16.884 189.247,16.777 C189.247,15.963 189.487,15.404 190.463,15.404 C191.255,15.404 193.120,15.874 194.066,16.155 C194.276,16.218 194.974,16.564 194.969,17.605 C194.959,20.364 194.948,27.637 194.948,27.637 C194.948,27.637 195.551,25.813 196.417,23.118 C197.482,19.802 198.508,17.004 199.393,15.964 C200.415,14.693 203.254,15.761 204.189,16.366 C205.629,17.297 205.906,18.434 205.914,19.770 C205.960,26.617 206.329,29.876 206.494,31.670 C206.518,31.941 206.657,31.917 206.670,31.801 C206.929,29.562 208.028,24.050 210.839,17.106 C211.833,14.649 213.831,15.401 215.205,15.912 C218.399,17.099 218.727,18.305 218.664,19.524 C218.354,25.456 218.315,31.420 218.557,34.659 C218.866,38.779 220.065,40.837 221.399,40.837 C222.594,40.837 223.520,39.899 224.401,35.742 C224.656,34.547 224.963,33.837 225.636,33.837 C226.502,33.837 226.791,34.957 226.596,36.408 ZM98.633,19.574 C95.953,19.306 94.236,22.137 93.551,26.130 C93.089,28.822 92.711,33.803 93.821,37.457 C95.362,42.524 98.855,41.412 100.620,37.905 C101.596,35.968 102.205,33.301 102.373,30.110 C102.725,23.471 101.386,19.849 98.633,19.574 ZM125.530,19.574 C122.685,19.574 121.101,22.983 120.448,26.657 C119.944,29.489 119.700,33.984 120.718,37.457 C122.207,42.540 125.799,41.436 127.518,37.905 C128.350,36.195 129.113,33.169 129.270,30.156 C129.660,22.680 128.296,19.574 125.530,19.574 ZM129.979,47.309 C125.594,51.738 122.601,55.363 121.968,58.912 C121.253,62.923 124.707,64.411 127.278,62.427 C129.090,61.027 129.935,56.208 129.972,50.711 C129.989,48.319 129.979,47.309 129.979,47.309 ZM172.663,19.573 C169.871,19.306 168.184,22.276 167.580,26.209 C166.987,30.070 167.026,34.691 167.851,37.457 C169.365,42.532 172.932,41.436 174.650,37.905 C175.538,36.082 176.253,33.496 176.403,30.188 C176.706,23.471 175.417,19.838 172.663,19.573 ZM17.664,37.467 C17.545,40.979 16.885,44.214 15.001,46.907 C13.429,49.152 10.714,50.546 10.078,49.960 C9.509,49.436 10.260,48.077 10.727,46.065 C11.188,44.079 11.445,42.070 11.445,35.707 C11.445,31.005 11.580,8.473 11.580,5.963 C11.580,4.559 11.611,3.801 10.975,4.346 C7.554,7.280 4.835,13.968 5.458,19.953 C5.940,24.587 8.280,25.080 7.461,26.535 C6.765,27.771 -1.724,23.994 0.315,15.063 C1.926,8.013 7.026,2.399 11.665,0.410 C13.606,-0.422 17.717,1.170 17.746,2.688 C17.864,8.875 17.812,19.167 17.807,22.682 C17.801,26.514 17.807,33.233 17.664,37.467 Z"/>
</svg>